<svg width="50.000000" height="26.000000" viewBox="0 0 50 26" fill="none" xmlns="http://www.w3.org/2000/svg" xmlns:xlink="http://www.w3.org/1999/xlink">
	<desc>
			Created with Pixso.
	</desc>
	<defs/>
	<path id="Vector" d="M50 1.6853C50.0005 1.89331 49.959 2.09918 49.8784 2.29059C49.7979 2.48199 49.6797 2.65497 49.5308 2.79907L26.1309 25.5659C25.8462 25.8444 25.4653 26 25.0684 26C24.6719 26 24.291 25.8444 24.0059 25.5659L0.51123 2.70007C0.357422 2.56146 0.233398 2.39307 0.145508 2.2049C0.0581055 2.01672 0.00878906 1.81262 0.000976562 1.60486C-0.00683594 1.39709 0.0273438 1.18988 0.100586 0.995605C0.174316 0.801331 0.285645 0.623962 0.428711 0.474182C0.571289 0.324341 0.742676 0.205139 0.932617 0.123718C1.12207 0.0422363 1.32617 0.00012207 1.53223 0C1.73828 -0.00012207 1.94238 0.041626 2.13184 0.122803C2.32178 0.203979 2.49316 0.322937 2.63623 0.472534L25.0669 22.302L47.4028 0.571533C47.6191 0.360901 47.8926 0.219177 48.1885 0.164124C48.4844 0.109009 48.7896 0.142944 49.0664 0.261658C49.3433 0.380371 49.5796 0.578674 49.7456 0.831787C49.9116 1.08496 50 1.38177 50 1.6853Z" fill="#FFFFFF" fill-opacity="1.000000" fill-rule="nonzero"/>
</svg>
